<mxfile host="app.diagrams.net" modified="2023-07-13T17:48:15.607Z" agent="Mozilla/5.0 (Windows NT 10.0; Win64; x64) AppleWebKit/537.36 (KHTML, like Gecko) Chrome/114.0.0.0 Safari/537.36" version="21.6.2" etag="RAnki8oC1QK0nfocciQS" type="github">
  <diagram name="Page-1" id="6POVs8wvYwi0A7_3WERP">
    <mxGraphModel>
      <root>
        <mxCell id="0" />
        <mxCell id="1" parent="0" />
      </root>
    </mxGraphModel>
  </diagram>
</mxfile>
